# vtk DataFile Version 3.0
Block with four distinct vector fields
ASCII
DATASET STRUCTURED_GRID
DIMENSIONS 5 5 5
POINTS 125 float
0.0000 0.0000 0.0000
1.0000 0.0000 0.0000
2.0000 0.0000 0.0000
3.0000 0.0000 0.0000
4.0000 0.0000 0.0000
0.0000 1.0000 0.0000
1.0000 1.0000 0.0000
2.0000 1.0000 0.0000
3.0000 1.0000 0.0000
4.0000 1.0000 0.0000
0.0000 2.0000 0.0000
1.0000 2.0000 0.0000
2.0000 2.0000 0.0000
3.0000 2.0000 0.0000
4.0000 2.0000 0.0000
0.0000 3.0000 0.0000
1.0000 3.0000 0.0000
2.0000 3.0000 0.0000
3.0000 3.0000 0.0000
4.0000 3.0000 0.0000
0.0000 4.0000 0.0000
1.0000 4.0000 0.0000
2.0000 4.0000 0.0000
3.0000 4.0000 0.0000
4.0000 4.0000 0.0000
0.0000 0.0000 1.0000
1.0000 0.0000 1.0000
2.0000 0.0000 1.0000
3.0000 0.0000 1.0000
4.0000 0.0000 1.0000
0.0000 1.0000 1.0000
1.0000 1.0000 1.0000
2.0000 1.0000 1.0000
3.0000 1.0000 1.0000
4.0000 1.0000 1.0000
0.0000 2.0000 1.0000
1.0000 2.0000 1.0000
2.0000 2.0000 1.0000
3.0000 2.0000 1.0000
4.0000 2.0000 1.0000
0.0000 3.0000 1.0000
1.0000 3.0000 1.0000
2.0000 3.0000 1.0000
3.0000 3.0000 1.0000
4.0000 3.0000 1.0000
0.0000 4.0000 1.0000
1.0000 4.0000 1.0000
2.0000 4.0000 1.0000
3.0000 4.0000 1.0000
4.0000 4.0000 1.0000
0.0000 0.0000 2.0000
1.0000 0.0000 2.0000
2.0000 0.0000 2.0000
3.0000 0.0000 2.0000
4.0000 0.0000 2.0000
0.0000 1.0000 2.0000
1.0000 1.0000 2.0000
2.0000 1.0000 2.0000
3.0000 1.0000 2.0000
4.0000 1.0000 2.0000
0.0000 2.0000 2.0000
1.0000 2.0000 2.0000
2.0000 2.0000 2.0000
3.0000 2.0000 2.0000
4.0000 2.0000 2.0000
0.0000 3.0000 2.0000
1.0000 3.0000 2.0000
2.0000 3.0000 2.0000
3.0000 3.0000 2.0000
4.0000 3.0000 2.0000
0.0000 4.0000 2.0000
1.0000 4.0000 2.0000
2.0000 4.0000 2.0000
3.0000 4.0000 2.0000
4.0000 4.0000 2.0000
0.0000 0.0000 3.0000
1.0000 0.0000 3.0000
2.0000 0.0000 3.0000
3.0000 0.0000 3.0000
4.0000 0.0000 3.0000
0.0000 1.0000 3.0000
1.0000 1.0000 3.0000
2.0000 1.0000 3.0000
3.0000 1.0000 3.0000
4.0000 1.0000 3.0000
0.0000 2.0000 3.0000
1.0000 2.0000 3.0000
2.0000 2.0000 3.0000
3.0000 2.0000 3.0000
4.0000 2.0000 3.0000
0.0000 3.0000 3.0000
1.0000 3.0000 3.0000
2.0000 3.0000 3.0000
3.0000 3.0000 3.0000
4.0000 3.0000 3.0000
0.0000 4.0000 3.0000
1.0000 4.0000 3.0000
2.0000 4.0000 3.0000
3.0000 4.0000 3.0000
4.0000 4.0000 3.0000
0.0000 0.0000 4.0000
1.0000 0.0000 4.0000
2.0000 0.0000 4.0000
3.0000 0.0000 4.0000
4.0000 0.0000 4.0000
0.0000 1.0000 4.0000
1.0000 1.0000 4.0000
2.0000 1.0000 4.0000
3.0000 1.0000 4.0000
4.0000 1.0000 4.0000
0.0000 2.0000 4.0000
1.0000 2.0000 4.0000
2.0000 2.0000 4.0000
3.0000 2.0000 4.0000
4.0000 2.0000 4.0000
0.0000 3.0000 4.0000
1.0000 3.0000 4.0000
2.0000 3.0000 4.0000
3.0000 3.0000 4.0000
4.0000 3.0000 4.0000
0.0000 4.0000 4.0000
1.0000 4.0000 4.0000
2.0000 4.0000 4.0000
3.0000 4.0000 4.0000
4.0000 4.0000 4.0000

POINT_DATA 125
SCALARS DistFromCenter float 1
LOOKUP_TABLE default
3.4641
3.0000
2.8284
3.0000
3.4641
3.0000
2.4495
2.2361
2.4495
3.0000
2.8284
2.2361
2.0000
2.2361
2.8284
3.0000
2.4495
2.2361
2.4495
3.0000
3.4641
3.0000
2.8284
3.0000
3.4641
3.0000
2.4495
2.2361
2.4495
3.0000
2.4495
1.7321
1.4142
1.7321
2.4495
2.2361
1.4142
1.0000
1.4142
2.2361
2.4495
1.7321
1.4142
1.7321
2.4495
3.0000
2.4495
2.2361
2.4495
3.0000
2.8284
2.2361
2.0000
2.2361
2.8284
2.2361
1.4142
1.0000
1.4142
2.2361
2.0000
1.0000
0.0000
1.0000
2.0000
2.2361
1.4142
1.0000
1.4142
2.2361
2.8284
2.2361
2.0000
2.2361
2.8284
3.0000
2.4495
2.2361
2.4495
3.0000
2.4495
1.7321
1.4142
1.7321
2.4495
2.2361
1.4142
1.0000
1.4142
2.2361
2.4495
1.7321
1.4142
1.7321
2.4495
3.0000
2.4495
2.2361
2.4495
3.0000
3.4641
3.0000
2.8284
3.0000
3.4641
3.0000
2.4495
2.2361
2.4495
3.0000
2.8284
2.2361
2.0000
2.2361
2.8284
3.0000
2.4495
2.2361
2.4495
3.0000
3.4641
3.0000
2.8284
3.0000
3.4641

VECTORS Wind_Flow float
1.0000 0.0000 0.0000
1.0000 0.0000 0.0000
1.0000 0.0000 0.0000
1.0000 0.0000 0.0000
1.0000 0.0000 0.0000
1.0000 0.0000 0.0000
1.0000 0.0000 0.0000
1.0000 0.0000 0.0000
1.0000 0.0000 0.0000
1.0000 0.0000 0.0000
1.0000 0.0000 0.0000
1.0000 0.0000 0.0000
1.0000 0.0000 0.0000
1.0000 0.0000 0.0000
1.0000 0.0000 0.0000
1.0000 0.0000 0.0000
1.0000 0.0000 0.0000
1.0000 0.0000 0.0000
1.0000 0.0000 0.0000
1.0000 0.0000 0.0000
1.0000 0.0000 0.0000
1.0000 0.0000 0.0000
1.0000 0.0000 0.0000
1.0000 0.0000 0.0000
1.0000 0.0000 0.0000
1.0000 0.4000 0.0000
1.0000 0.4000 0.0000
1.0000 0.4000 0.0000
1.0000 0.4000 0.0000
1.0000 0.4000 0.0000
1.0000 0.4000 0.0000
1.0000 0.4000 0.0000
1.0000 0.4000 0.0000
1.0000 0.4000 0.0000
1.0000 0.4000 0.0000
1.0000 0.4000 0.0000
1.0000 0.4000 0.0000
1.0000 0.4000 0.0000
1.0000 0.4000 0.0000
1.0000 0.4000 0.0000
1.0000 0.4000 0.0000
1.0000 0.4000 0.0000
1.0000 0.4000 0.0000
1.0000 0.4000 0.0000
1.0000 0.4000 0.0000
1.0000 0.4000 0.0000
1.0000 0.4000 0.0000
1.0000 0.4000 0.0000
1.0000 0.4000 0.0000
1.0000 0.4000 0.0000
1.0000 0.8000 0.0000
1.0000 0.8000 0.0000
1.0000 0.8000 0.0000
1.0000 0.8000 0.0000
1.0000 0.8000 0.0000
1.0000 0.8000 0.0000
1.0000 0.8000 0.0000
1.0000 0.8000 0.0000
1.0000 0.8000 0.0000
1.0000 0.8000 0.0000
1.0000 0.8000 0.0000
1.0000 0.8000 0.0000
1.0000 0.8000 0.0000
1.0000 0.8000 0.0000
1.0000 0.8000 0.0000
1.0000 0.8000 0.0000
1.0000 0.8000 0.0000
1.0000 0.8000 0.0000
1.0000 0.8000 0.0000
1.0000 0.8000 0.0000
1.0000 0.8000 0.0000
1.0000 0.8000 0.0000
1.0000 0.8000 0.0000
1.0000 0.8000 0.0000
1.0000 0.8000 0.0000
1.0000 1.2000 0.0000
1.0000 1.2000 0.0000
1.0000 1.2000 0.0000
1.0000 1.2000 0.0000
1.0000 1.2000 0.0000
1.0000 1.2000 0.0000
1.0000 1.2000 0.0000
1.0000 1.2000 0.0000
1.0000 1.2000 0.0000
1.0000 1.2000 0.0000
1.0000 1.2000 0.0000
1.0000 1.2000 0.0000
1.0000 1.2000 0.0000
1.0000 1.2000 0.0000
1.0000 1.2000 0.0000
1.0000 1.2000 0.0000
1.0000 1.2000 0.0000
1.0000 1.2000 0.0000
1.0000 1.2000 0.0000
1.0000 1.2000 0.0000
1.0000 1.2000 0.0000
1.0000 1.2000 0.0000
1.0000 1.2000 0.0000
1.0000 1.2000 0.0000
1.0000 1.2000 0.0000
1.0000 1.6000 0.0000
1.0000 1.6000 0.0000
1.0000 1.6000 0.0000
1.0000 1.6000 0.0000
1.0000 1.6000 0.0000
1.0000 1.6000 0.0000
1.0000 1.6000 0.0000
1.0000 1.6000 0.0000
1.0000 1.6000 0.0000
1.0000 1.6000 0.0000
1.0000 1.6000 0.0000
1.0000 1.6000 0.0000
1.0000 1.6000 0.0000
1.0000 1.6000 0.0000
1.0000 1.6000 0.0000
1.0000 1.6000 0.0000
1.0000 1.6000 0.0000
1.0000 1.6000 0.0000
1.0000 1.6000 0.0000
1.0000 1.6000 0.0000
1.0000 1.6000 0.0000
1.0000 1.6000 0.0000
1.0000 1.6000 0.0000
1.0000 1.6000 0.0000
1.0000 1.6000 0.0000