# vtk DataFile Version 3.0
UNSTRUCTURED_GRID mixed cells: hex(12) tetra(11) pyramid(13) wedge(14)
ASCII
DATASET UNSTRUCTURED_GRID
POINTS 23 float
0.0 0.0 0.0
1.0 0.0 0.0
1.0 1.0 0.0
0.0 1.0 0.0
0.0 0.0 1.0
1.0 0.0 1.0
1.0 1.0 1.0
0.0 1.0 1.0
3.0 0.0 0.0
4.0 0.0 0.0
3.0 1.0 0.0
3.0 0.0 1.0
6.0 0.0 0.0
7.0 0.0 0.0
7.0 1.0 0.0
6.0 1.0 0.0
6.5 0.5 1.0
9.0 0.0 0.0
10.0 0.0 0.0
9.0 1.0 0.0
9.0 0.0 1.0
10.0 0.0 1.0
9.0 1.0 1.0
CELLS 4 27
8 0 1 2 3 4 5 6 7
4 8 9 10 11
5 12 13 14 15 16
6 17 18 19 20 21 22
CELL_TYPES 4
12
11
13
14
POINT_DATA 23
SCALARS scalars float 1
LOOKUP_TABLE default
0.0 1.0 2.0 3.0 4.0 5.0 6.0 7.0 8.0 9.0 10.0 11.0 12.0 13.0 14.0 15.0 16.0 17.0 18.0 19.0 20.0 21.0 22.0
